<svg width="50" height="50" viewBox="0 0 50 50" fill="none" xmlns="http://www.w3.org/2000/svg">
<g clip-path="url(#clip0)">
<path d="M46.0938 30.2734C46.0938 30.8128 45.6566 31.25 45.1172 31.25C44.5778 31.25 44.1406 30.8128 44.1406 30.2734C44.1406 29.734 44.5778 29.2969 45.1172 29.2969C45.6566 29.2969 46.0938 29.734 46.0938 30.2734Z" fill="#E9CA77"/>
<path d="M0.53978 5.75638L2.85301 6.91261L4.00925 9.22585C4.1748 9.55658 4.51279 9.76562 4.88281 9.76562C5.25284 9.76562 5.59082 9.55658 5.75638 9.22585L6.91261 6.91261L9.22585 5.75638C9.55658 5.59082 9.76562 5.25284 9.76562 4.88281C9.76562 4.51279 9.55658 4.1748 9.22585 4.00925L6.91261 2.85301L5.75638 0.53978C5.59082 0.209045 5.25284 0 4.88281 0C4.51279 0 4.1748 0.209045 4.00925 0.53978L2.85301 2.85301L0.53978 4.00925C0.209045 4.1748 0 4.51279 0 4.88281C0 5.25284 0.209045 5.59082 0.53978 5.75638ZM4.01764 4.45442C4.20685 4.3602 4.3602 4.20685 4.4548 4.01764L4.88281 3.16086L5.3112 4.01764C5.40543 4.20685 5.55878 4.35982 5.74799 4.45442L6.60477 4.88281L5.74799 5.3112C5.55878 5.40543 5.40543 5.55878 5.3112 5.74799L4.88281 6.60477L4.45442 5.74799C4.3602 5.55878 4.20685 5.40581 4.01764 5.3112L3.16086 4.88281L4.01764 4.45442Z" fill="#E9CA77"/>
<path d="M9.375 10.3516C8.8356 10.3516 8.39844 10.7887 8.39844 11.3281V12.3047H7.42188C6.88248 12.3047 6.44531 12.7419 6.44531 13.2812C6.44531 13.8206 6.88248 14.2578 7.42188 14.2578H8.39844V15.2344C8.39844 15.7738 8.8356 16.2109 9.375 16.2109C9.9144 16.2109 10.3516 15.7738 10.3516 15.2344V14.2578H11.3281C11.8675 14.2578 12.3047 13.8206 12.3047 13.2812C12.3047 12.7419 11.8675 12.3047 11.3281 12.3047H10.3516V11.3281C10.3516 10.7887 9.9144 10.3516 9.375 10.3516Z" fill="#E9CA77"/>
<path d="M28.9062 2.53906C28.3669 2.53906 27.9297 2.97623 27.9297 3.51562V4.49219H26.9531C26.4137 4.49219 25.9766 4.92935 25.9766 5.46875C25.9766 6.00815 26.4137 6.44531 26.9531 6.44531H27.9297V7.42188C27.9297 7.96127 28.3669 8.39844 28.9062 8.39844C29.4456 8.39844 29.8828 7.96127 29.8828 7.42188V6.44531H30.8594C31.3988 6.44531 31.8359 6.00815 31.8359 5.46875C31.8359 4.92935 31.3988 4.49219 30.8594 4.49219H29.8828V3.51562C29.8828 2.97623 29.4456 2.53906 28.9062 2.53906Z" fill="#E9CA77"/>
<path d="M21.0938 8.39844C17.8627 8.39844 15.2344 11.0268 15.2344 14.2578V16.4963C13.3667 18.1648 12.3047 20.5257 12.3047 23.0469V49.0234C12.3047 49.5628 12.7419 50 13.2812 50H28.9062C29.4456 50 29.8828 49.5628 29.8828 49.0234V23.0469C29.8828 20.5257 28.8208 18.1648 26.9531 16.4963V14.2578C26.9531 11.021 24.3313 8.39844 21.0938 8.39844ZM17.1875 14.2578C17.1875 12.104 18.94 10.3516 21.0938 10.3516C23.251 10.3516 25 12.0998 25 14.2578V22.0703C25 22.2351 24.9889 22.3988 24.9683 22.5613C23.912 21.6316 22.5368 21.0938 21.0938 21.0938C19.6507 21.0938 18.2755 21.6316 17.2192 22.5613C17.1986 22.3988 17.1875 22.2351 17.1875 22.0703V14.2578ZM24.1398 24.511C23.4047 25.4261 22.2843 25.9766 21.0938 25.9766C19.9036 25.9766 18.7832 25.4261 18.0477 24.511C18.7828 23.597 19.9032 23.0469 21.0938 23.0469C22.2843 23.0469 23.4047 23.597 24.1398 24.511ZM27.9297 23.0469V48.0469H14.2578V23.0469C14.2578 21.7842 14.6023 20.5742 15.2344 19.5248V22.0703C15.2344 25.383 17.9459 27.9297 21.0938 27.9297C24.3095 27.9297 26.9531 25.3136 26.9531 22.0703V19.5248C27.5852 20.5742 27.9297 21.7842 27.9297 23.0469Z" fill="#E9CA77"/>
<path d="M23.0469 31.8359H19.1406C18.6012 31.8359 18.1641 32.2731 18.1641 32.8125C18.1641 33.3519 18.6012 33.7891 19.1406 33.7891H23.0469C23.5863 33.7891 24.0234 33.3519 24.0234 32.8125C24.0234 32.2731 23.5863 31.8359 23.0469 31.8359Z" fill="#E9CA77"/>
<path d="M23.0469 35.7422H19.1406C18.6012 35.7422 18.1641 36.1794 18.1641 36.7188C18.1641 37.2581 18.6012 37.6953 19.1406 37.6953H23.0469C23.5863 37.6953 24.0234 37.2581 24.0234 36.7188C24.0234 36.1794 23.5863 35.7422 23.0469 35.7422Z" fill="#E9CA77"/>
<path d="M45.1172 33.2031C44.5778 33.2031 44.1406 33.6403 44.1406 34.1797V41.4021C43.2224 42.4492 42.2562 43.4204 41.5699 43.9827C41.1526 44.3245 41.0912 44.9398 41.433 45.3571C41.7751 45.7749 42.3904 45.8351 42.807 45.4941C43.6474 44.8059 44.788 43.6504 45.8584 42.4023C46.0102 42.2253 46.0938 41.9998 46.0938 41.7667V34.1797C46.0938 33.6403 45.6566 33.2031 45.1172 33.2031Z" fill="#E9CA77"/>
<path d="M50 6.83594C50 6.61774 49.9271 6.40602 49.7925 6.23398C49.7444 6.17256 48.597 4.71039 47.1489 3.22456C44.3321 0.334167 42.9684 0 42.1875 0C39.8357 0 36.0203 4.40025 34.5825 6.23398C34.4513 6.40144 34.3761 6.61697 34.3754 6.83212C34.3754 6.83327 34.375 6.83479 34.375 6.83632V20.5078C34.375 21.0472 34.8122 21.4844 35.3516 21.4844C36.9671 21.4844 38.2812 22.7985 38.2812 24.4141C38.2812 26.0296 36.9671 27.3438 35.3516 27.3438C34.8122 27.3438 34.375 27.7809 34.375 28.3203V43.1641C34.375 43.3823 34.4479 43.594 34.5825 43.766C34.6306 43.8274 35.778 45.2896 37.2261 46.7754C40.0429 49.6658 41.4066 50 42.1875 50C42.9684 50 44.3321 49.6658 47.1489 46.7754C48.597 45.2896 49.7444 43.8274 49.7925 43.7656C49.9271 43.594 50 43.3823 50 43.1641V28.3203C50 27.7809 49.5628 27.3438 49.0234 27.3438C46.2196 27.3438 46.0938 24.4434 46.0938 24.4141C46.0938 23.9475 46.2135 23.4741 46.4401 23.0461C46.4413 23.0438 46.4428 23.0415 46.4439 23.0392C46.9627 22.0654 47.9263 21.4844 49.0234 21.4844C49.5537 21.4844 50.0004 21.0518 50 20.5074C50 20.2869 50 6.93512 50 6.83594ZM36.6661 6.76918C36.9911 6.38008 37.4401 5.85709 37.9551 5.29633L48.0469 15.3881V18.1503L36.6661 6.76918ZM45.7394 4.57649C46.7682 5.63164 47.6585 6.7009 48.0469 7.17888V12.6259L39.3204 3.89938C41.2548 2.0565 42.0387 1.95312 42.1875 1.95312C42.3531 1.95312 43.3033 2.07977 45.7394 4.57649ZM48.0469 29.2137V42.8211C47.6585 43.2991 46.7682 44.3684 45.7394 45.4231C43.3033 47.9202 42.3531 48.0469 42.1875 48.0469C42.0219 48.0469 41.0717 47.9202 38.6356 45.4235C37.6068 44.3687 36.7165 43.2991 36.3281 42.8211V29.1988C38.554 28.7453 40.2344 26.7719 40.2344 24.4141C40.2344 22.0562 38.554 20.0832 36.3281 19.6293V14.7179L44.4199 22.8096C44.2375 23.3284 44.1406 23.8724 44.1406 24.4141C44.1406 25.8572 45.1199 28.6926 48.0469 29.2137ZM45.4548 21.0823L36.3281 11.9556V9.1938L47.0665 19.9322C46.4573 20.1962 45.9106 20.586 45.4548 21.0823Z" fill="#E9CA77"/>
</g>
<defs>
<clipPath id="clip0">
<rect width="50" height="50" fill="white"/>
</clipPath>
</defs>
</svg>
